<svg xmlns="http://www.w3.org/2000/svg" width="106" height="73" viewBox="0 0 106 73">
  <g id="Group_548" data-name="Group 548" transform="translate(-224 -780)">
    <rect id="Rectangle_97" data-name="Rectangle 97" width="106" height="73" transform="translate(224 780)" fill="#fff" fill-opacity="0.0"/>
    <g id="Group_537" data-name="Group 537" transform="translate(72.62 140.4)">
      <circle id="Ellipse_1" data-name="Ellipse 1" cx="5.5" cy="5.5" r="5.5" transform="translate(191.38 695.6)" fill="#4c9c2e"/>
      <circle id="Ellipse_5" data-name="Ellipse 5" cx="5.391" cy="5.391" r="5.391" transform="translate(189.352 674.319) rotate(31)" fill="#4c9c2e"/>
      <circle id="Ellipse_13" data-name="Ellipse 13" cx="3.701" cy="3.701" r="3.701" transform="translate(175.895 675.44) rotate(31)" fill="#4c9c2e"/>
      <circle id="Ellipse_10" data-name="Ellipse 10" cx="5.391" cy="5.391" r="5.391" transform="matrix(0.995, 0.105, -0.105, 0.995, 218.207, 645.6)" fill="#4c9c2e"/>
      <circle id="Ellipse_15" data-name="Ellipse 15" cx="5.391" cy="5.391" r="5.391" transform="matrix(0.995, 0.105, -0.105, 0.995, 193.796, 648.892)" fill="#4c9c2e"/>
      <circle id="Ellipse_11" data-name="Ellipse 11" cx="2.262" cy="2.262" r="2.262" transform="matrix(0.995, 0.105, -0.105, 0.995, 230.876, 672.954)" fill="#4c9c2e"/>
      <circle id="Ellipse_17" data-name="Ellipse 17" cx="2.262" cy="2.262" r="2.262" transform="matrix(0.995, 0.105, -0.105, 0.995, 212.273, 677.504)" fill="#4c9c2e"/>
      <circle id="Ellipse_14" data-name="Ellipse 14" cx="2.262" cy="2.262" r="2.262" transform="matrix(0.995, 0.105, -0.105, 0.995, 192.231, 667.752)" fill="#4c9c2e"/>
      <ellipse id="Ellipse_2" data-name="Ellipse 2" cx="4" cy="3.5" rx="4" ry="3.5" transform="translate(205.38 686.6)" fill="#4c9c2e"/>
      <ellipse id="Ellipse_8" data-name="Ellipse 8" cx="3" cy="2.5" rx="3" ry="2.5" transform="translate(218.38 683.6)" fill="#4c9c2e"/>
      <circle id="Ellipse_6" data-name="Ellipse 6" cx="3.774" cy="3.774" r="3.774" transform="translate(202.482 673.402) rotate(31)" fill="#4c9c2e"/>
      <circle id="Ellipse_12" data-name="Ellipse 12" cx="6.835" cy="6.835" r="6.835" transform="translate(210.353 656.801) rotate(31)" fill="#4c9c2e"/>
      <circle id="Ellipse_9" data-name="Ellipse 9" cx="2.157" cy="2.157" r="2.157" transform="translate(178.542 688.093) rotate(31)" fill="#4c9c2e"/>
      <circle id="Ellipse_7" data-name="Ellipse 7" cx="3.774" cy="3.774" r="3.774" transform="translate(234.29 688.832) rotate(31)" fill="#4c9c2e"/>
      <circle id="Ellipse_16" data-name="Ellipse 16" cx="3.774" cy="3.774" r="3.774" transform="translate(220.027 689.115) rotate(31)" fill="#4c9c2e"/>
      <ellipse id="Ellipse_3" data-name="Ellipse 3" cx="2" cy="1.5" rx="2" ry="1.5" transform="translate(166.38 682.6) rotate(-90)" fill="#4c9c2e"/>
      <circle id="Ellipse_4" data-name="Ellipse 4" cx="3.774" cy="3.774" r="3.774" transform="translate(183.168 657.394) rotate(31)" fill="#4c9c2e"/>
    </g>
  </g>
</svg>
